<svg width="25" height="25" viewBox="0 0 25 25" fill="none" xmlns="http://www.w3.org/2000/svg">
    <path d="M11.3426 0.0488281C6.45982 0.522461 2.27525 3.80859 0.688335 8.41309C-0.669087 12.3535 0.0193901 16.6748 2.55357 20.0635C3.00767 20.6689 4.3358 21.9971 4.94615 22.4561C6.68443 23.7549 8.59361 24.5459 10.7909 24.8877C11.577 25.0049 13.4227 25.0049 14.2088 24.8877C15.6297 24.668 16.7479 24.3213 17.993 23.7109C20.4247 22.5146 22.3387 20.6494 23.5838 18.252C24.5848 16.3184 25.0633 14.2041 24.9803 12.0605C24.8583 8.84277 23.5936 5.92773 21.3329 3.66699C19.4042 1.74316 17.0067 0.541992 14.2577 0.12207C13.6473 0.0292969 11.9725 -0.00976562 11.3426 0.0488281ZM13.5252 5.22461C15.1268 5.47363 16.3768 6.29395 16.9579 7.48535C17.2606 8.09082 17.3534 8.55957 17.3192 9.22363C17.2899 9.79004 17.1922 10.1367 16.9383 10.5908C16.6502 11.0986 16.3915 11.3818 15.2782 12.4072C14.6629 12.9736 14.0819 13.5303 13.9891 13.6426C13.7694 13.916 13.6131 14.2725 13.4764 14.8438C13.4129 15.0977 13.3251 15.3857 13.2762 15.4834C12.9491 16.1426 11.9432 16.2549 11.4208 15.6885C11.1522 15.4004 11.1083 15.2539 11.1131 14.6484C11.1131 13.999 11.1961 13.623 11.4549 13.1055C11.704 12.6025 12.0409 12.2217 13.0711 11.2793C14.4432 10.0293 14.6532 9.73145 14.6581 9.06738C14.6581 8.52051 14.5165 8.16895 14.1356 7.79297C13.745 7.40234 13.2665 7.22656 12.5731 7.22656C11.3768 7.22656 10.7616 7.74902 10.2342 9.21387C9.99498 9.8877 9.78502 10.1709 9.40416 10.3271C9.14537 10.4395 8.69615 10.4297 8.42759 10.3076C8.14927 10.1855 7.84166 9.86816 7.73423 9.59473C7.62193 9.29199 7.66099 8.73535 7.83189 8.22754C8.26158 6.97266 9.32115 5.95703 10.7323 5.46387C11.4403 5.20996 12.7294 5.10254 13.5252 5.22461ZM12.91 17.041C13.4227 17.2363 13.7645 17.7002 13.8085 18.2666C13.8524 18.8916 13.6034 19.3652 13.0809 19.6533C12.8417 19.7852 12.7733 19.7998 12.3778 19.7998C11.9969 19.7998 11.9042 19.7803 11.6942 19.668C11.201 19.4092 10.9374 18.9844 10.9325 18.4473C10.9276 18.0469 10.9667 17.8955 11.1424 17.6172C11.5086 17.0361 12.246 16.7969 12.91 17.041Z"
          fill="#333333" fill-opacity="0.5"/>
</svg>
