<svg width="28" height="26" viewBox="0 0 28 26" fill="none" xmlns="http://www.w3.org/2000/svg">
    <path d="M12.9744 2.92383C11.8533 1.81641 10.5271 1.07812 9.22827 0.832031C5.1267 0.0664062 1.21655 2.88281 0.382564 7.2168C-0.30103 10.7988 0.943111 13.8613 4.55249 17.4844C6.50756 19.4531 13.1521 25.1406 13.6169 25.2363C13.822 25.291 14.1775 25.291 14.3826 25.2363C14.9978 25.0996 22.7087 18.4004 24.3494 16.582C26.6599 13.998 27.7947 11.5234 27.8083 9.07617C27.822 5.76758 26.113 2.85547 23.3923 1.51562C20.4665 0.0664062 17.404 0.585938 15.0251 2.92383L13.9998 3.92188L12.9744 2.92383Z"
          fill="white" fill-opacity="0.5"/>
    <path d="M12.6256 3.28214L12.623 3.27954C11.5595 2.229 10.3198 1.54786 9.13562 1.32337C5.32939 0.613396 1.66066 3.22239 0.873661 7.31073C0.548912 9.0126 0.682544 10.5753 1.32091 12.1471C1.96361 13.7294 3.12836 15.3464 4.90671 17.1315L4.90727 17.1321C5.86886 18.1004 8.00458 20.0026 9.96859 21.6828C10.9483 22.521 11.8793 23.2988 12.5926 23.8718C12.9498 24.1587 13.2485 24.3911 13.4697 24.5532C13.5809 24.6347 13.6669 24.6942 13.7279 24.733C13.7462 24.7446 13.7601 24.753 13.7703 24.7588C13.8205 24.7687 13.9019 24.7773 13.9998 24.7773C14.1032 24.7773 14.1883 24.7677 14.2375 24.7571C14.2529 24.7489 14.2772 24.735 14.3117 24.7133C14.3881 24.6653 14.4925 24.5932 14.6248 24.4964C14.8882 24.3035 15.2391 24.0293 15.6542 23.6934C16.4831 23.0227 17.5512 22.1197 18.6536 21.1623C20.8679 19.2391 23.1805 17.1308 23.9773 16.248C26.2387 13.7187 27.2954 11.3572 27.3083 9.07393C27.3213 5.93631 25.703 3.21091 23.1714 1.96418L23.1704 1.96367C20.4418 0.612101 17.6077 1.08679 15.3756 3.28045L15.3739 3.28213L14.3485 4.28017L13.9998 4.61962L13.651 4.28017L12.6256 3.28214ZM13.7914 24.7701C13.7914 24.77 13.7896 24.7691 13.7864 24.7677C13.7898 24.7695 13.7915 24.7702 13.7914 24.7701ZM14.2232 24.7642C14.2232 24.7642 14.2243 24.7637 14.2266 24.7626C14.2244 24.7636 14.2232 24.7641 14.2232 24.7642Z"
          stroke="#333333" stroke-opacity="0.5"/>
</svg>