<svg width="25" height="25" viewBox="0 0 25 25" fill="none" xmlns="http://www.w3.org/2000/svg">
    <path d="M7.87493 3.9367C7.8381 3.94674 7.68743 3.97688 7.54011 4.00366C5.96645 4.30165 4.60707 5.50031 4.0814 7.04719C3.84368 7.74697 3.85707 7.41214 3.85707 12.488C3.85707 16.7738 3.86042 17.0751 3.91734 17.3429C4.31243 19.1945 5.70528 20.5874 7.55685 20.9825C7.8247 21.0394 8.12604 21.0427 12.4118 21.0427C16.6975 21.0427 16.9988 21.0394 17.2667 20.9825C19.1182 20.5874 20.5111 19.1945 20.9062 17.3429C20.9631 17.0751 20.9664 16.7738 20.9664 12.488C20.9664 8.20232 20.9631 7.90098 20.9062 7.63313C20.558 5.99585 19.4062 4.68335 17.8526 4.15768C17.1528 3.91996 17.5446 3.9367 12.4955 3.93C9.991 3.92665 7.91176 3.93 7.87493 3.9367ZM17.6115 6.22688C18.164 6.39764 18.5725 6.95009 18.5725 7.52933C18.5725 8.04161 18.2577 8.5204 17.7756 8.74808C17.5981 8.83179 17.4977 8.85522 17.2901 8.86527C16.8749 8.88536 16.5635 8.77152 16.2689 8.49027C15.8571 8.09853 15.7399 7.47241 15.9843 6.95679C16.2823 6.32732 16.9553 6.02598 17.6115 6.22688ZM13.1584 7.88424C13.6305 7.96795 14.0089 8.09183 14.4374 8.29942C14.9631 8.55723 15.3448 8.83514 15.7499 9.25031C16.9318 10.4691 17.3537 12.1733 16.8783 13.8206C16.7711 14.1923 16.5167 14.728 16.2722 15.0963C16.0278 15.4679 15.4988 16.007 15.1305 16.2715C14.9698 16.3854 14.6584 16.5662 14.4374 16.6767C13.7678 17.0014 13.1618 17.1421 12.4118 17.1421C11.6618 17.1421 11.0557 17.0014 10.3861 16.6767C9.86042 16.4188 9.47872 16.1409 9.07359 15.7258C7.89167 14.507 7.47314 12.8095 7.94524 11.1554C8.05573 10.7704 8.37046 10.1342 8.62828 9.76929C8.89278 9.40098 9.43185 8.87197 9.8035 8.62755C10.356 8.26259 10.9921 8.00478 11.6417 7.88759C11.9932 7.82397 12.7968 7.82397 13.1584 7.88424Z"
          fill="white"/>
    <path d="M17.0458 7.16451C16.9152 7.21809 16.8315 7.36206 16.8315 7.53617C16.8315 7.6701 16.8483 7.71027 16.9353 7.79733C17.0224 7.88438 17.0626 7.90112 17.2032 7.90112C17.4175 7.90112 17.5648 7.78059 17.5916 7.57969C17.6318 7.26831 17.3405 7.04398 17.0458 7.16451Z"
          fill="white"/>
    <path d="M11.8059 8.83534C10.3561 9.1032 9.2311 10.1244 8.83936 11.5374C8.7523 11.8454 8.74561 11.9157 8.74561 12.4882C8.74561 13.0608 8.7523 13.1311 8.83936 13.4391C9.19761 14.7315 10.1686 15.7025 11.461 16.0608C11.769 16.1478 11.8394 16.1545 12.4119 16.1545C12.9844 16.1545 13.0548 16.1478 13.3628 16.0608C14.6552 15.7025 15.6262 14.7315 15.9844 13.4391C16.0715 13.1311 16.0782 13.0608 16.0782 12.4882C16.0782 11.9157 16.0715 11.8454 15.9844 11.5374C15.6262 10.2516 14.6552 9.27396 13.3795 8.91905C13.1117 8.84539 12.9811 8.832 12.5123 8.82195C12.2077 8.81526 11.8896 8.82195 11.8059 8.83534Z"
          fill="white"/>
</svg>
