<svg width="25" height="25" viewBox="0 0 25 25" fill="none" xmlns="http://www.w3.org/2000/svg">
    <path d="M10.3271 5.4053C9.88769 5.43948 9.34082 5.53225 9.13086 5.60061C8.83789 5.70315 8.51074 5.93264 8.39355 6.11819C8.26171 6.33792 8.27636 6.38186 8.48632 6.42093C8.72558 6.46487 9.1748 6.66995 9.3164 6.80178C9.49707 6.9678 9.65332 7.31936 9.74609 7.76858C9.85839 8.31057 9.87304 10.5518 9.7705 11.1817C9.56543 12.4463 9.07226 12.6905 8.32031 11.9043C7.49023 11.0401 6.20605 8.86233 5.41504 6.98245C5.16601 6.39651 5 6.2012 4.64355 6.07913C4.42871 6.01077 4.16504 6.001 2.45605 6.01565C0.332027 6.0303 0.253902 6.04007 0.0683552 6.31839C-0.102543 6.58206 0.0634725 7.01663 1.21093 9.30179C2.8125 12.5098 4.37988 14.9463 5.89355 16.5869C7.40234 18.2325 9.37988 19.2725 11.4746 19.5313C11.7432 19.5655 12.3633 19.5801 12.9395 19.5703C13.8623 19.5557 13.9551 19.5459 14.1455 19.4483C14.4775 19.2676 14.5557 19.1162 14.6045 18.5157C14.6582 17.8614 14.6875 17.6709 14.7803 17.334C15.0293 16.4502 15.4932 16.1182 16.0791 16.4112C16.2061 16.4746 16.5381 16.7823 16.9434 17.2022C18.3545 18.6768 18.8086 19.1065 19.1699 19.2969C19.7949 19.6289 19.8584 19.6338 21.9971 19.5996C24.043 19.5703 24.3213 19.541 24.668 19.3116C25.2441 18.9307 25.0684 18.335 24.0039 16.9922C23.8428 16.792 23.125 16.045 22.4072 15.3321C21.4355 14.375 21.0693 13.9795 21.001 13.8184C20.7568 13.2715 20.8887 13.003 22.3145 11.1328C23.6621 9.36526 24.2236 8.54007 24.6387 7.70999C25.0781 6.83108 25.0977 6.35745 24.6924 6.13772L24.4873 6.0303L22.0215 6.04983C19.3506 6.06448 19.3945 6.0596 19.1943 6.33792C19.1406 6.41604 18.9893 6.73831 18.8574 7.06057C17.9248 9.30667 16.4404 11.6504 15.6299 12.168C15.2295 12.417 14.9512 12.3194 14.7412 11.8555L14.624 11.5967V8.9844V6.3721L14.4922 6.10354C14.4141 5.95218 14.292 5.79104 14.1992 5.72757C13.999 5.59085 13.584 5.48343 13.0127 5.41995C12.6123 5.376 10.8008 5.36624 10.3271 5.4053Z"
          fill="white"/>
</svg>
