<svg width="25" height="25" viewBox="0 0 25 25" fill="none" xmlns="http://www.w3.org/2000/svg">
    <path d="M6.90911 3.61427C2.9345 3.68263 2.29974 3.79005 1.59173 4.51271C0.541927 5.58204 0.0927086 7.53029 0.0194664 11.3731C-0.0342445 14.0586 0.136654 16.2705 0.493099 17.6231C0.810482 18.8047 1.36224 19.7373 1.98724 20.1279C2.8222 20.6504 3.97454 20.7188 12.5488 20.7139C21.079 20.7139 22.1777 20.6553 22.998 20.1377C23.8036 19.6299 24.4091 18.4092 24.7021 16.6904C24.912 15.4649 24.9706 14.5029 24.9706 12.1787C24.9706 10.0108 24.9413 9.34669 24.7802 8.1504C24.5361 6.35841 24.0966 5.1963 23.3788 4.48341C22.8759 3.9756 22.329 3.79982 20.996 3.70704C19.1357 3.58009 11.6552 3.53126 6.90911 3.61427ZM13.4423 9.90822C15.4736 11.1289 17.1386 12.1397 17.1386 12.1543C17.1386 12.1738 12.539 14.9522 9.56536 16.7344L9.37493 16.8467V12.1543V7.46193L9.56536 7.57423C9.6679 7.63771 11.4111 8.68751 13.4423 9.90822Z"
          fill="white"/>
</svg>
